<svg id="Livello_1" data-name="Livello 1" xmlns="http://www.w3.org/2000/svg" width="126.44mm" height="76.55mm" viewBox="0 0 358.41 217">
  <defs>
    <style>
      .cls-1 {
        fill: #fffbeb;
      }
    </style>
  </defs>
  <g>
    <path class="cls-1" d="M246,440.89c-5.32-1.13-10.67-2.14-15.95-3.42-18.57-4.46-33.51-15.09-47.05-28-7.23-6.89-13.95-14.36-21.58-20.77-21.51-18.07-45-17.82-66.56.26-5.08,4.26-10,8.76-16.06,14.16.69-3.26,1-5.22,1.52-7.13a85.2,85.2,0,0,1,75.38-63.2c35.34-3.06,65.51,7.76,90.13,33.67a226.89,226.89,0,0,0,19.65,18.45c20.52,17,47.24,16.67,67.62-.57,4.15-3.51,8.09-7.28,12.12-10.93l1.5.68c-1.71,5.38-2.78,11.09-5.24,16.1-13.37,27.17-34.3,44.47-65,48.67a59,59,0,0,0-7.5,2Z" transform="translate(-78.8 -223.89)"/>
    <path class="cls-1" d="M267,223.89c6.46,1.37,12.93,2.72,19.38,4.13,17.86,3.91,32.2,13.93,45.14,26.27,6.26,6,12.14,12.37,18.51,18.22,25.73,23.64,56.27,22.44,80.37-3l6.8-7.21c-3.42,15.49-9.15,28.32-18.41,39.37-20.91,24.94-48.24,33.74-79.89,30.78-29-2.73-52.8-15.92-72.34-37.34a149.73,149.73,0,0,0-16.07-15c-21.6-17.59-49.21-16.45-70,2.64-3.25,3-6.5,6-10.27,9.49,4.58-32.06,31.68-59.47,63.73-65.34,4.7-.86,9.34-2,14-3Z" transform="translate(-78.8 -223.89)"/>
  </g>
</svg>
