<svg id="Livello_1" data-name="Livello 1" xmlns="http://www.w3.org/2000/svg" width="302" height="302" viewBox="0 0 302 302">
  <defs>
    <style>
      .cls-1 {
        fill: #fffbeb;
      }
    </style>
  </defs>
  <path class="cls-1" d="M409.58,520.5H158.66a9.32,9.32,0,0,0-1.3-.57C145,516.7,137.23,509,134.47,496.4c0-.21-.31-.38-.47-.56V244.67l.17-.23-.17,0v-1.26a9.44,9.44,0,0,0,.57-1.31c3.22-12.38,11-20.1,23.53-22.87.21,0,.38-.32.56-.48H411.34a9.26,9.26,0,0,0,1.3.56c12.39,3.23,20.12,11,22.88,23.55.05.21.32.37.48.55V494.33l-.17.23.17,0v1.26c-.17.22-.44.43-.49.67A29.51,29.51,0,0,1,412,520c-.25,0-.46.32-.68.49h-1.76ZM203.7,361.94a5,5,0,0,0-.23,1.07q0,11,0,21.91a4.81,4.81,0,0,0,.3,1.14l16.58,0,20.84,0c0,.58,0,1.17,0,1.76V491.93c0,.63,0,1.25.07,1.88a9.38,9.38,0,0,0,1.56.25h26.8c1.77,0,1.77,0,1.77-1.79V417.82q0-15.85,0-31.7c.58,0,1.17,0,1.76,0l35.71,0,.23-.2V362a7.11,7.11,0,0,0-1.42-.27H205.15a9.11,9.11,0,0,0-1.45.23Zm201.56,29.43a7.14,7.14,0,0,0,.28-1.28q0-12.4,0-24.82a7.56,7.56,0,0,0-.25-1.31l-.57-.26a64.71,64.71,0,0,0-16.53-3.77c-3.68-.32-7.35-.8-11-.94-3.34-.13-6.69.11-10,.19a70.57,70.57,0,0,0-14.52,2A51.26,51.26,0,0,0,338,366.91c-11.65,6.94-17.4,17.34-17.66,30.78a45.8,45.8,0,0,0,.89,8.39,30.48,30.48,0,0,0,5.39,12.71c4.53,6.38,10.64,10.92,17.54,14.34,5.7,2.82,11.61,5.22,17.42,7.82,4.67,2.1,9.27,4.36,13.12,7.82,2.8,2.5,5,5.32,5,9.43,0,3.06-.6,5.73-2.7,8a14.91,14.91,0,0,1-6.19,4,39.33,39.33,0,0,1-16.68,2.07,64.36,64.36,0,0,1-13.63-2.6A55.67,55.67,0,0,1,321.25,459l-.28,0,0,.8a12.71,12.71,0,0,0-.18,1.48q0,12.38,0,24.74a12.71,12.71,0,0,0,.18,1.48c.32.41.55,1,1,1.22a61.16,61.16,0,0,0,13.84,4.67,91.45,91.45,0,0,0,18.2,2.19h8.85c4.74-.52,9.52-.86,14.23-1.61a48,48,0,0,0,16.47-5.73c11.07-6.37,16.88-16,17.57-28.68.15-2.78-.11-5.59-.23-8.39a29.24,29.24,0,0,0-2.4-10,35,35,0,0,0-10.66-13.62c-6.23-5-13.42-8.32-20.64-11.6q-8.34-3.78-16.47-8a19.37,19.37,0,0,1-6.87-6,10.36,10.36,0,0,1,1.08-13.7c2.93-3,6.69-4.44,10.67-5.17a46.43,46.43,0,0,1,11.79-.64,66.63,66.63,0,0,1,15.86,3.05A52.05,52.05,0,0,1,405.26,391.37Z" transform="translate(-134 -218.5)"/>
</svg>
