<svg id="Livello_1" data-name="Livello 1" xmlns="http://www.w3.org/2000/svg" width="2409.09" height="2364.81" viewBox="0 0 2409.09 2364.81">
  <defs>
    <style>
      .cls-1 {
        fill: #fff;
      }
    </style>
  </defs>
  <g>
    <path class="cls-1" d="M2252.93,1939c-131.07-3.27-232.66,9.84-317.86,45.88-24.58,9.82-63.91,9.83-67.19,41,13.11,13.11,14.75,34.41,26.22,52.43,19.68,32.76,54.07,77,85.2,99.95,34.4,26.21,68.83,52.42,104.86,75.37,63.91,39.32,136,62.26,198.27,101.58,36.06,22.93,72.08,52.44,108.13,77,18,13.09,29.49,34.41,52.44,42.6v-4.91c-11.48-14.76-14.76-36.05-26.22-52.44-16.37-16.38-32.77-31.13-49.16-47.52-47.51-63.89-106.49-119.6-170.39-165.48-52.43-36.05-167.14-85.2-188.43-145.83,0,0-1.65-1.63-3.28-3.27,36-3.27,78.64-16.38,113.06-26.21,55.71-14.76,106.49-11.48,163.85-26.22,26.21-6.56,52.43-14.75,78.64-23v-14.73c-29.48-29.5-50.78-68.82-81.92-96.68C2195.59,1796.42,2103.82,1726,2008.8,1667c-50.8-32.78-116.35-54.08-170.41-81.93-19.65-9.84-52.43-14.75-63.89-31.13-29.51-36-45.9-83.56-67.19-126.16-47.5-90.13-93.39-190.07-134.36-285.09-29.48-63.91-47.5-127.82-83.56-186.79C1320.63,677.35,1137.12,508.58,855.3,343.09c-60.63-34.4-132.72-49.15-209.73-67.17-41-1.65-81.92-4.91-122.88-6.56-26.22-11.47-52.44-42.6-75.38-57.35C353.93,153,113.06,25.23,44.24,194,0,300.49,109.79,405.35,147.46,459.43c27.88,37.68,63.91,80.28,83.57,122.89,11.47,27.83,14.74,57.35,26.21,86.84,26.23,72.07,50.79,152.37,85.21,219.56,18,34.4,37.68,70.44,60.63,101.58,13.11,18,36,26.22,41,55.7-22.93,32.78-24.58,81.94-37.7,122.9-59,185.15-36,414.53,47.53,550.52,26.2,40.95,88.47,131.1,172,96.68,73.74-29.49,57.35-122.89,78.64-204.81,4.93-19.68,1.65-32.77,11.48-45.88v3.28c22.94,45.87,45.87,90.12,67.17,136,50.8,80.27,139.27,163.84,213,219.56,39.34,29.48,70.46,80.28,119.62,98.3v-4.92h-3.28c-9.83-14.75-24.58-21.3-37.68-32.78-29.49-29.48-62.27-65.53-85.2-98.3-68.81-91.77-129.45-193.34-183.52-298.21-26.21-50.78-49.16-106.5-70.45-157.28-9.84-19.69-9.84-49.17-26.22-59-24.58,36-60.62,67.18-78.65,111.41-31.11,70.46-34.4,157.3-45.87,247.41-6.55,1.65-3.29,0-6.56,3.29-52.42-13.13-70.45-67.18-90.12-113.07-49.16-116.32-57.36-303.11-14.74-437.47,11.47-34.41,60.63-142.54,41-175.32-9.84-31.13-42.62-49.16-60.63-73.73-21.3-31.13-44.25-70.44-59-104.86-39.33-91.76-59-193.35-101.59-285.1C273.63,502,239.24,457.8,211.37,418.47c-31.13-44.24-65.54-75.38-90.12-127.81-8.18-18-19.66-47.51-6.55-67.18,3.27-13.11,9.82-18,22.94-21.29,21.3-18,81.93,4.91,103.22,14.74,60.63,24.56,111.42,47.52,162.22,81.92,22.93,16.39,47.51,47.53,77,55.72h34.42c52.43,11.46,111.41,3.28,160.57,18,86.85,27.85,165.49,68.82,236,113.06C1125.66,621.63,1302.6,815,1422.22,1046c19.66,37.67,27.85,72.11,45.87,111.42,34.42,80.29,77,162.21,111.41,240.86,34.42,77,67.18,155.66,116.34,219.57,24.58,34.39,122.88,52.42,167.13,70.45,32.77,14.74,83.57,27.86,113,45.87,55.71,34.4,111.42,73.74,163.85,111.41,26.22,19.67,108.14,60.63,113.06,93.4Z" transform="translate(-33.91 -109.95)"/>
    <path class="cls-1" d="M581.65,515.12a259.9,259.9,0,0,0-67.16,8.2v3.28h3.27c13.12,26.22,36,44.24,52.42,67.18,13.12,26.21,24.58,52.43,37.7,78.65l3.27-3.27c23-16.4,34.41-42.61,34.41-81.94-9.83-11.46-11.47-22.93-19.66-34.4-9.82-16.4-31.14-24.58-44.25-37.7Z" transform="translate(-33.91 -109.95)"/>
  </g>
</svg>
